<mxfile host="app.diagrams.net" modified="2024-07-22T12:35:38.906Z" agent="Mozilla/5.0 (X11; Ubuntu; Linux x86_64; rv:128.0) Gecko/20100101 Firefox/128.0" etag="0k7auzE3xs9gUxsQy0Fk" version="24.6.4" type="device">
  <diagram name="Page-1" id="f79vSbwUjl2LcW1LLKJr">
    <mxGraphModel dx="941" dy="611" grid="1" gridSize="10" guides="1" tooltips="1" connect="1" arrows="1" fold="1" page="1" pageScale="1" pageWidth="850" pageHeight="1100" math="0" shadow="0">
      <root>
        <mxCell id="0" />
        <mxCell id="1" parent="0" />
        <mxCell id="wJYWCrMIzMpaRqlIuFmg-1" value="&lt;div&gt;Initialization&lt;/div&gt;" style="ellipse;whiteSpace=wrap;html=1;" parent="1" vertex="1">
          <mxGeometry x="350" y="160" width="120" height="80" as="geometry" />
        </mxCell>
        <mxCell id="wJYWCrMIzMpaRqlIuFmg-2" value="Unconfigured" style="ellipse;whiteSpace=wrap;html=1;" parent="1" vertex="1">
          <mxGeometry x="200" y="260" width="120" height="80" as="geometry" />
        </mxCell>
        <mxCell id="wJYWCrMIzMpaRqlIuFmg-3" value="Configured" style="ellipse;whiteSpace=wrap;html=1;" parent="1" vertex="1">
          <mxGeometry x="350" y="505" width="120" height="80" as="geometry" />
        </mxCell>
        <mxCell id="wJYWCrMIzMpaRqlIuFmg-12" value="" style="curved=1;endArrow=classic;html=1;rounded=0;entryX=0.5;entryY=0;entryDx=0;entryDy=0;" parent="1" target="wJYWCrMIzMpaRqlIuFmg-2" edge="1">
          <mxGeometry width="50" height="50" relative="1" as="geometry">
            <mxPoint x="350" y="200" as="sourcePoint" />
            <mxPoint x="400" y="150" as="targetPoint" />
            <Array as="points">
              <mxPoint x="260" y="190" />
            </Array>
          </mxGeometry>
        </mxCell>
        <mxCell id="wJYWCrMIzMpaRqlIuFmg-14" value="" style="curved=1;endArrow=classic;html=1;rounded=0;entryX=0;entryY=0.5;entryDx=0;entryDy=0;exitX=0;exitY=0.5;exitDx=0;exitDy=0;" parent="1" source="wJYWCrMIzMpaRqlIuFmg-22" target="wJYWCrMIzMpaRqlIuFmg-2" edge="1">
          <mxGeometry width="50" height="50" relative="1" as="geometry">
            <mxPoint x="220" y="400" as="sourcePoint" />
            <mxPoint x="220" y="400" as="targetPoint" />
            <Array as="points">
              <mxPoint x="150" y="520" />
              <mxPoint x="110" y="390" />
            </Array>
          </mxGeometry>
        </mxCell>
        <mxCell id="tnOtu48VCibC0Qx3fLbz-4" value="" style="edgeStyle=orthogonalEdgeStyle;rounded=0;orthogonalLoop=1;jettySize=auto;html=1;" parent="1" source="wJYWCrMIzMpaRqlIuFmg-22" target="wJYWCrMIzMpaRqlIuFmg-3" edge="1">
          <mxGeometry relative="1" as="geometry" />
        </mxCell>
        <mxCell id="wJYWCrMIzMpaRqlIuFmg-22" value="Parameters configured?" style="rhombus;whiteSpace=wrap;html=1;" parent="1" vertex="1">
          <mxGeometry x="215" y="500" width="90" height="90" as="geometry" />
        </mxCell>
        <mxCell id="wJYWCrMIzMpaRqlIuFmg-23" value="" style="endArrow=classic;html=1;rounded=0;entryX=0.5;entryY=0;entryDx=0;entryDy=0;" parent="1" target="tnOtu48VCibC0Qx3fLbz-2" edge="1">
          <mxGeometry width="50" height="50" relative="1" as="geometry">
            <mxPoint x="260" y="340" as="sourcePoint" />
            <mxPoint x="310" y="290" as="targetPoint" />
          </mxGeometry>
        </mxCell>
        <mxCell id="tnOtu48VCibC0Qx3fLbz-3" value="" style="edgeStyle=orthogonalEdgeStyle;rounded=0;orthogonalLoop=1;jettySize=auto;html=1;" parent="1" source="tnOtu48VCibC0Qx3fLbz-2" target="wJYWCrMIzMpaRqlIuFmg-22" edge="1">
          <mxGeometry relative="1" as="geometry" />
        </mxCell>
        <mxCell id="tnOtu48VCibC0Qx3fLbz-2" value="Configuring" style="ellipse;whiteSpace=wrap;html=1;" parent="1" vertex="1">
          <mxGeometry x="200" y="380" width="120" height="80" as="geometry" />
        </mxCell>
        <mxCell id="tnOtu48VCibC0Qx3fLbz-6" value="Yes" style="text;html=1;align=center;verticalAlign=middle;whiteSpace=wrap;rounded=0;" parent="1" vertex="1">
          <mxGeometry x="295" y="515" width="60" height="30" as="geometry" />
        </mxCell>
        <mxCell id="tnOtu48VCibC0Qx3fLbz-8" value="" style="curved=1;endArrow=classic;html=1;rounded=0;entryX=1;entryY=0.5;entryDx=0;entryDy=0;" parent="1" target="tnOtu48VCibC0Qx3fLbz-2" edge="1">
          <mxGeometry width="50" height="50" relative="1" as="geometry">
            <mxPoint x="410" y="505" as="sourcePoint" />
            <mxPoint x="410" y="460" as="targetPoint" />
            <Array as="points">
              <mxPoint x="420" y="420" />
            </Array>
          </mxGeometry>
        </mxCell>
        <mxCell id="tnOtu48VCibC0Qx3fLbz-10" value="No" style="text;html=1;align=center;verticalAlign=middle;whiteSpace=wrap;rounded=0;" parent="1" vertex="1">
          <mxGeometry x="179" y="512" width="60" height="30" as="geometry" />
        </mxCell>
        <mxCell id="cFmIvr4ntq1QTKSBjTFn-4" value="" style="curved=1;endArrow=classic;html=1;rounded=0;exitX=0;exitY=0.5;exitDx=0;exitDy=0;strokeColor=default;" edge="1" parent="1">
          <mxGeometry width="50" height="50" relative="1" as="geometry">
            <mxPoint x="320" y="300" as="sourcePoint" />
            <mxPoint x="415" y="505" as="targetPoint" />
            <Array as="points">
              <mxPoint x="520" y="340" />
            </Array>
          </mxGeometry>
        </mxCell>
        <mxCell id="cFmIvr4ntq1QTKSBjTFn-7" value="No Parameters" style="text;html=1;align=center;verticalAlign=middle;resizable=0;points=[];autosize=1;strokeColor=none;fillColor=none;" vertex="1" parent="1">
          <mxGeometry x="321" y="279" width="100" height="30" as="geometry" />
        </mxCell>
      </root>
    </mxGraphModel>
  </diagram>
</mxfile>
